<svg width="250" height="147" viewBox="0 0 250 147" fill="none" xmlns="http://www.w3.org/2000/svg">
<rect x="54.0025" y="5.4943" width="97.2872" height="102.191" rx="11.5" transform="rotate(28.8116 54.0025 5.4943)" stroke="#ACB3BF" stroke-width="7"/>
<path d="M149.59 120.605C147.977 120.605 146.638 120.385 145.575 119.945C144.512 119.505 143.668 118.845 143.045 117.965C142.422 117.085 141.982 116.003 141.725 114.72C141.468 113.4 141.34 111.878 141.34 110.155V86.01H133.97V82.16H145.85V110.155C145.85 111.438 145.923 112.483 146.07 113.29C146.253 114.097 146.51 114.757 146.84 115.27C147.207 115.747 147.647 116.077 148.16 116.26C148.673 116.443 149.278 116.535 149.975 116.535C151.038 116.535 152.028 116.407 152.945 116.15C153.862 115.893 154.577 115.618 155.09 115.325L155.75 119.175C155.53 119.285 155.218 119.432 154.815 119.615C154.412 119.762 153.935 119.908 153.385 120.055C152.835 120.202 152.23 120.33 151.57 120.44C150.947 120.55 150.287 120.605 149.59 120.605ZM168.4 116.755C169.537 116.755 170.545 116.718 171.425 116.645C172.342 116.572 173.093 116.48 173.68 116.37V108.78C173.093 108.597 172.378 108.45 171.535 108.34C170.728 108.23 169.867 108.175 168.95 108.175C168.107 108.175 167.282 108.248 166.475 108.395C165.668 108.505 164.953 108.725 164.33 109.055C163.707 109.385 163.193 109.825 162.79 110.375C162.387 110.888 162.185 111.548 162.185 112.355C162.185 114.005 162.735 115.16 163.835 115.82C164.972 116.443 166.493 116.755 168.4 116.755ZM167.96 93.875C169.867 93.875 171.462 94.1133 172.745 94.59C174.065 95.0667 175.128 95.7267 175.935 96.57C176.742 97.4133 177.31 98.44 177.64 99.65C177.97 100.86 178.135 102.18 178.135 103.61V119.56C177.072 119.743 175.66 119.963 173.9 120.22C172.177 120.477 170.398 120.605 168.565 120.605C167.172 120.605 165.815 120.477 164.495 120.22C163.175 120 162.002 119.597 160.975 119.01C159.948 118.387 159.123 117.543 158.5 116.48C157.877 115.417 157.565 114.06 157.565 112.41C157.565 110.943 157.877 109.715 158.5 108.725C159.16 107.698 159.985 106.873 160.975 106.25C162.002 105.627 163.157 105.187 164.44 104.93C165.76 104.637 167.08 104.49 168.4 104.49C170.197 104.49 171.957 104.692 173.68 105.095V103.83C173.68 103.06 173.588 102.327 173.405 101.63C173.258 100.897 172.947 100.237 172.47 99.65C172.03 99.0633 171.407 98.605 170.6 98.275C169.83 97.9083 168.822 97.725 167.575 97.725C165.998 97.725 164.623 97.835 163.45 98.055C162.277 98.275 161.378 98.495 160.755 98.715L160.205 94.975C160.828 94.6817 161.855 94.425 163.285 94.205C164.752 93.985 166.31 93.875 167.96 93.875ZM191.115 94.48H201.895V98.275H191.115V110.155C191.115 111.438 191.207 112.483 191.39 113.29C191.573 114.097 191.867 114.757 192.27 115.27C192.71 115.747 193.26 116.077 193.92 116.26C194.58 116.443 195.387 116.535 196.34 116.535C197.66 116.535 198.723 116.425 199.53 116.205C200.337 115.985 201.107 115.692 201.84 115.325L202.5 119.175C201.987 119.395 201.162 119.688 200.025 120.055C198.925 120.422 197.55 120.605 195.9 120.605C193.993 120.605 192.435 120.385 191.225 119.945C190.015 119.505 189.062 118.845 188.365 117.965C187.705 117.085 187.247 116.003 186.99 114.72C186.733 113.4 186.605 111.878 186.605 110.155V98.275H181.215V94.48H186.605V87.33L191.115 86.56V94.48ZM203.105 108.23C203.728 106.763 204.572 105.077 205.635 103.17C206.735 101.263 207.963 99.3017 209.32 97.285C210.677 95.2317 212.125 93.2333 213.665 91.29C215.205 89.31 216.763 87.5317 218.34 85.955H222.74V107.57H226.755V111.31H222.74V120H218.34V111.31H203.105V108.23ZM218.34 91.345C217.35 92.4083 216.342 93.5817 215.315 94.865C214.325 96.1483 213.353 97.505 212.4 98.935C211.447 100.328 210.548 101.758 209.705 103.225C208.898 104.692 208.165 106.14 207.505 107.57H218.34V91.345ZM249.195 111.145C249.195 114.005 248.278 116.315 246.445 118.075C244.648 119.835 241.898 120.715 238.195 120.715C236.068 120.715 234.308 120.44 232.915 119.89C231.522 119.303 230.403 118.57 229.56 117.69C228.753 116.773 228.167 115.765 227.8 114.665C227.47 113.565 227.305 112.483 227.305 111.42C227.305 109.477 227.837 107.753 228.9 106.25C229.963 104.747 231.228 103.537 232.695 102.62C229.578 100.86 228.02 98.165 228.02 94.535C228.02 93.2883 228.258 92.0967 228.735 90.96C229.212 89.8233 229.89 88.8333 230.77 87.99C231.65 87.1467 232.713 86.4683 233.96 85.955C235.243 85.4417 236.673 85.185 238.25 85.185C240.083 85.185 241.642 85.46 242.925 86.01C244.245 86.56 245.308 87.275 246.115 88.155C246.922 88.9983 247.508 89.9517 247.875 91.015C248.242 92.0417 248.425 93.05 248.425 94.04C248.425 95.9833 247.93 97.67 246.94 99.1C245.95 100.493 244.813 101.612 243.53 102.455C247.307 104.252 249.195 107.148 249.195 111.145ZM231.705 111.475C231.705 112.062 231.815 112.685 232.035 113.345C232.255 113.968 232.622 114.555 233.135 115.105C233.648 115.655 234.327 116.113 235.17 116.48C236.013 116.81 237.04 116.975 238.25 116.975C239.387 116.975 240.358 116.828 241.165 116.535C242.008 116.205 242.687 115.783 243.2 115.27C243.75 114.72 244.153 114.115 244.41 113.455C244.667 112.795 244.795 112.135 244.795 111.475C244.795 109.385 244.043 107.79 242.54 106.69C241.037 105.553 238.965 104.692 236.325 104.105C234.858 104.912 233.722 105.92 232.915 107.13C232.108 108.34 231.705 109.788 231.705 111.475ZM244.025 94.04C244.025 93.5633 243.915 93.0317 243.695 92.445C243.475 91.8217 243.127 91.2717 242.65 90.795C242.21 90.2817 241.623 89.86 240.89 89.53C240.157 89.1633 239.277 88.98 238.25 88.98C237.187 88.98 236.288 89.145 235.555 89.475C234.858 89.805 234.272 90.2267 233.795 90.74C233.318 91.2167 232.97 91.7667 232.75 92.39C232.567 92.9767 232.475 93.5633 232.475 94.15C232.475 95.6533 233.007 97.065 234.07 98.385C235.17 99.6683 236.967 100.603 239.46 101.19C240.853 100.383 241.953 99.43 242.76 98.33C243.603 97.23 244.025 95.8 244.025 94.04Z" fill="#ACB3BF"/>
</svg>
